PathFileType	4	(X/Y/Z)	/Users/itak/Documents/Research/Walk-IL/dataset/trc/00232_00009.trc
DataRate	CameraRate	NumFrames	NumMarkers	Units	OrigDataRate	OrigDataStartFrame	OrigNumFrames
100.000000	100.000000	4	53	mm	100.000000	745	852
Frame#	Time	RPSI			LPSI			L3			STRN			T10			C7			CLAV			RBAK			LBAK			LSHO			LUPA			LAEL			LAOL			LWTS			LWPS			LFRA			LIFD			LHPS			LHTS			RSHO			RUPA			RAEL			RAOL			RWTS			RWPS			RFRA			RIFD			RHTS			RHPS			RBHD			LFHD			RFHD			LBHD			LHIP			RHIP			RASI			LASI			LKNE			LTHI			LANK			LTIP			LTOE			LMT1			LMT5			LHEE			RKNE			RTHI			RANK			RTIP			RTOE			RMT1			RMT5			RHEE			
		X1	Y1	Z1	X2	Y2	Z2	X3	Y3	Z3	X4	Y4	Z4	X5	Y5	Z5	X6	Y6	Z6	X7	Y7	Z7	X8	Y8	Z8	X9	Y9	Z9	X10	Y10	Z10	X11	Y11	Z11	X12	Y12	Z12	X13	Y13	Z13	X14	Y14	Z14	X15	Y15	Z15	X16	Y16	Z16	X17	Y17	Z17	X18	Y18	Z18	X19	Y19	Z19	X20	Y20	Z20	X21	Y21	Z21	X22	Y22	Z22	X23	Y23	Z23	X24	Y24	Z24	X25	Y25	Z25	X26	Y26	Z26	X27	Y27	Z27	X28	Y28	Z28	X29	Y29	Z29	X30	Y30	Z30	X31	Y31	Z31	X32	Y32	Z32	X33	Y33	Z33	X34	Y34	Z34	X35	Y35	Z35	X36	Y36	Z36	X37	Y37	Z37	X38	Y38	Z38	X39	Y39	Z39	X40	Y40	Z40	X41	Y41	Z41	X42	Y42	Z42	X43	Y43	Z43	X44	Y44	Z44	X45	Y45	Z45	X46	Y46	Z46	X47	Y47	Z47	X48	Y48	Z48	X49	Y49	Z49	X50	Y50	Z50	X51	Y51	Z51	X52	Y52	Z52	X53	Y53	Z53	

746	7.45	-75.57598114013672	1035.161743164062	516.1785888671875	-30.63440704345703	1040.885009765625	405.2525024414062	-51.12834167480469	1123.042724609375	445.2658081054688	188.0454864501953	1302.197998046875	525.3590087890625	-53.10335922241211	1251.203125	449.8754272460938	13.86688041687012	1510.859741210938	464.8135681152344	165.0464019775391	1419.731567382812	518.1962280273438	-85.77851867675781	1374.673095703125	509.4675598144531	27.9164981842041	1471.300903320312	353.6064147949219	129.9599761962891	1468.420654296875	329.6141967773438	125.8828125	1351.890258789062	244.6156616210938	154.2432556152344	1144.71142578125	217.5993957519531	72.13719177246094	1120.211669921875	238.3566589355469	264.354736328125	946.2720947265625	331.5359191894531	274.3551940917969	919.1181640625	252.3421783447266	199.8332977294922	1045.085693359375	224.4003601074219	321.5281066894531	760.9384155273438	353.722900390625	309.5011291503906	839.5811157226562	275.0274963378906	327.0498962402344	858.2125244140625	338.3235473632812	13.53754329681396	1468.4873046875	643.58837890625	-25.42308807373047	1403.819091796875	701.4512939453125	-55.13518142700195	1125.563232421875	745.280517578125	-64.36618041992188	1113.855590820312	648.3811645507812	97.77455139160156	919.8348999023438	753.239501953125	30.19955635070801	903.2162475585938	800.265380859375	-30.87502098083496	1058.831298828125	767.8052978515625	126.5767822265625	729.1073608398438	761.3202514648438	139.2867279052734	803.3863525390625	786.3594360351562	74.58151245117188	800.0745849609375	817.747314453125	61.56100463867188	1676.660034179688	533.1931762695312	286.4679260253906	1679.033447265625	501.5065002441406	257.2823486328125	1681.401611328125	597.1458740234375	143.6863098144531	1671.357055664062	419.1321105957031	109.3029632568359	978.8936157226562	310.732421875	-24.08981513977051	995.1043701171875	652.06640625	78.96540069580078	1041.220947265625	652.387939453125	189.131591796875	1021.786254882812	394.4210205078125	183.1435394287109	503.1001892089844	422.4157409667969	172.1504669189453	643.1443481445312	376.9536743164062	85.17393493652344	32.94837188720703	461.7222290039062	134.1338195800781	273.3785705566406	432.369140625	286.2902526855469	40.6662712097168	559.9295043945312	209.5179290771484	36.5722541809082	586.9776611328125	215.0347290039062	35.50534439086914	471.6662902832031	14.71281051635742	39.13197708129883	500.7106323242188	54.58918380737305	505.7064514160156	673.3438110351562	36.54361343383789	775.4549560546875	688.32080078125	-194.7843933105469	95.91290283203125	527.271728515625	26.02213668823242	390.8646850585938	646.3956909179688	-4.039608478546143	57.60932922363281	595.7344970703125	-24.6813850402832	63.33659362792969	530.6550903320312	-122.1359558105469	59.64215469360352	602.7992553710938	-213.3690185546875	118.5958251953125	448.1129760742188	
747	7.46	-73.61380004882812	1035.55517578125	517.433837890625	-29.20532608032227	1041.20947265625	406.2702331542969	-49.37094116210938	1123.306518554688	446.2698669433594	190.32568359375	1302.360717773438	525.2466430664062	-51.19557952880859	1251.477294921875	450.845703125	15.97883129119873	1511.11181640625	465.4349975585938	167.3569030761719	1419.904052734375	518.1774291992188	-83.53565979003906	1374.97314453125	510.5616149902344	29.53413009643555	1471.544067382812	354.1711120605469	131.4961242675781	1468.573364257812	329.7476196289062	127.1431427001953	1351.991455078125	244.8819885253906	155.7379455566406	1144.804321289062	218.1297454833984	73.79737091064453	1120.094604492188	239.2806396484375	267.1256103515625	947.2747802734375	332.3031921386719	276.9030456542969	919.8351440429688	253.1885986328125	201.7052764892578	1045.378295898438	225.0658264160156	325.3929138183594	762.333251953125	354.9851684570312	312.5097045898438	840.5780639648438	276.0060729980469	330.3376770019531	859.5784301757812	339.1250610351562	16.44876480102539	1468.713623046875	644.2353515625	-22.27035903930664	1404.05126953125	702.267578125	-52.05117797851562	1125.778198242188	746.1533813476562	-61.7841796875	1114.15185546875	649.2880249023438	100.8431625366211	920.0079956054688	753.24365234375	33.49553298950195	903.373046875	800.6121826171875	-27.70867156982422	1059.033569335938	768.5347290039062	129.6150970458984	729.2517700195312	760.899169921875	142.4480438232422	803.4812622070312	785.9783935546875	77.91342926025391	800.1763916015625	817.7283325195312	63.78002166748047	1676.802856445312	533.5535278320312	288.6046447753906	1679.386352539062	501.0250244140625	259.7713317871094	1681.74609375	596.7655029296875	145.5325927734375	1671.554931640625	419.1783447265625	110.5960006713867	978.9105224609375	311.1768493652344	-21.39533042907715	995.593505859375	653.057861328125	81.61483001708984	1041.547241210938	652.7809448242188	190.5006713867188	1021.728637695312	394.280029296875	183.4532623291016	502.9798278808594	422.1856079101562	172.5732727050781	643.0858764648438	376.858642578125	85.17119598388672	32.93778991699219	461.7424926757812	134.2897644042969	273.3480224609375	432.2962646484375	286.3175354003906	40.6762580871582	559.8306274414062	209.5151977539062	36.67022323608398	586.9055786132812	215.0243377685547	35.46626663208008	471.6042175292969	14.71640777587891	39.16707611083984	500.7519226074219	59.87643432617188	506.4969177246094	674.783203125	39.88975143432617	776.06591796875	689.52294921875	-186.6409454345703	92.57202911376953	536.2657470703125	31.87583351135254	391.3494567871094	649.208984375	5.442315101623535	57.94684600830078	603.5205078125	-16.06125640869141	62.31983184814453	538.5446166992188	-112.7166366577148	58.67066192626953	611.6383056640625	-206.3757476806641	113.6375045776367	456.9617004394531	
748	7.47	-71.68873596191406	1035.974853515625	518.72705078125	-27.82607841491699	1041.552001953125	407.314453125	-47.65038299560547	1123.605346679688	447.3076171875	192.5759429931641	1302.541748046875	525.1137084960938	-49.35355758666992	1251.78125	451.8455200195312	18.05402946472168	1511.3798828125	466.0684814453125	169.6383361816406	1420.089477539062	518.1455688476562	-81.32607269287109	1375.296875	511.6614379882812	31.10089874267578	1471.805419921875	354.7391662597656	132.9816741943359	1468.743408203125	329.8671264648438	128.3056030273438	1352.121948242188	245.1344604492188	157.0419769287109	1144.916381835938	218.6085968017578	75.27782440185547	1120.025512695312	240.1770629882812	269.6629333496094	948.2398681640625	332.968505859375	279.1726989746094	920.5087890625	253.9266052246094	203.3489990234375	1045.661010742188	225.6583404541016	328.9319152832031	763.6707153320312	356.1361694335938	315.2024841308594	841.5224609375	276.8619689941406	333.3458862304688	860.8827514648438	339.7984008789062	19.33655738830566	1468.956665039062	644.8854370117188	-19.14921379089355	1404.303833007812	703.0809326171875	-49.02813339233398	1126.014282226562	747.0028076171875	-59.26505661010742	1114.467651367188	650.1763305664062	103.8332977294922	920.17578125	753.2306518554688	36.68938446044922	903.5319213867188	800.9348754882812	-24.61563873291016	1059.251220703125	769.2422485351562	132.5379180908203	729.392578125	760.4710693359375	145.4855499267578	803.5691528320312	785.58984375	81.12545776367188	800.2771606445312	817.6929931640625	65.95790100097656	1676.957641601562	533.9215087890625	290.6968383789062	1679.7666015625	500.5503234863281	262.2239990234375	1682.103637695312	596.3921508789062	147.3386840820312	1671.77978515625	419.2352905273438	111.9619750976562	978.9520874023438	311.6727905273438	-18.7057991027832	996.1114501953125	654.0745849609375	84.27103424072266	1041.906127929688	653.1661987304688	191.8091430664062	1021.690612792969	394.1181640625	183.6334991455078	502.8699645996094	421.9224243164062	172.8721618652344	643.0424194335938	376.7434387207031	85.1673583984375	32.92305374145508	461.7669067382812	134.3516845703125	273.3252258300781	432.192138671875	286.3353881835938	40.69152450561523	559.7301025390625	209.5037841796875	36.77051162719727	586.827392578125	215.0123443603516	35.42453002929688	471.5377197265625	14.72727966308594	39.23090362548828	500.7731018066406	64.92025756835938	507.2947387695312	676.066162109375	43.15993499755859	776.6873779296875	690.6898803710938	-178.2541046142578	89.16958618164062	545.2203369140625	37.59589767456055	391.8517456054688	651.8950805664062	14.99428367614746	58.27659606933594	611.5057373046875	-7.284348964691162	61.16342163085938	546.614990234375	-103.1945724487305	57.76902389526367	620.5003051757812	-199.0480499267578	108.5115814208984	465.7476501464844	
749	7.48	-69.79994964599609	1036.42041015625	520.0562744140625	-26.49808311462402	1041.9150390625	408.3891296386719	-45.97103118896484	1123.93212890625	448.3807373046875	194.7953643798828	1302.740478515625	524.9649658203125	-47.57703399658203	1252.112182617188	452.8729248046875	20.09027481079102	1511.657348632812	466.7145690917969	171.8895111083984	1420.2890625	518.1041259765625	-79.15119171142578	1375.641479492188	512.7656860351562	32.61399078369141	1472.081420898438	355.3143005371094	134.4115753173828	1468.932983398438	329.9763793945312	129.3697357177734	1352.279418945312	245.3741760253906	158.1717071533203	1145.047973632812	219.0396728515625	76.58784484863281	1120.008544921875	241.0307464599609	271.9551391601562	949.15673828125	333.5372009277344	281.17138671875	921.13720703125	254.5620880126953	204.7797088623047	1045.93603515625	226.1823577880859	332.114013671875	764.9339599609375	357.1742858886719	317.5871887207031	842.4091796875	277.6025695800781	336.0616760253906	862.1117553710938	340.3587951660156	22.19404602050781	1469.21435546875	645.5390625	-16.06649589538574	1404.572631835938	703.8890380859375	-46.06476593017578	1126.26953125	747.8255615234375	-56.78964233398438	1114.799560546875	651.0414428710938	106.7433853149414	920.33740234375	753.211669921875	39.78023910522461	903.6942749023438	801.239013671875	-21.59506225585938	1059.482421875	769.9271850585938	135.3415679931641	729.5281982421875	760.0591430664062	148.4019012451172	803.6492919921875	785.2112426757812	84.21840667724609	800.3775634765625	817.6546630859375	68.09656524658203	1677.128662109375	534.296630859375	292.7436218261719	1680.169799804688	500.0820007324219	264.63916015625	1682.473754882812	596.0250854492188	149.1030426025391	1672.0302734375	419.3017578125	113.3386077880859	979.0181884765625	312.1996459960938	-16.02182769775391	996.6533203125	655.115966796875	86.93315887451172	1042.296630859375	653.5409545898438	193.0585632324219	1021.677429199219	393.9311828613281	183.6893310546875	502.7723083496094	421.6223754882812	173.0431976318359	643.0132446289062	376.6007080078125	85.16126251220703	32.90384292602539	461.7936401367188	134.3230438232422	273.3102722167969	432.0550537109375	286.3438415527344	40.71289825439453	559.625244140625	209.4845886230469	36.87412643432617	586.7406616210938	214.9989471435547	35.37887191772461	471.4655456542969	14.73066902160645	39.30722427368164	500.7764892578125	69.73600006103516	508.0859069824219	677.2261962890625	46.37945556640625	777.315185546875	691.8291625976562	-169.6567230224609	85.75101470947266	554.0855712890625	43.18982315063477	392.3581237792969	654.46435546875	24.61152458190918	58.62607955932617	619.5249633789062	1.657538056373596	59.9632453918457	554.7218627929688	-93.57219696044922	56.93569183349609	629.291015625	-191.4525909423828	103.3086166381836	474.4366455078125	
